<svg xmlns="http://www.w3.org/2000/svg" xmlns:xlink="http://www.w3.org/1999/xlink" width="243" zoomAndPan="magnify" viewBox="0 0 182.25 80.249996" height="107" preserveAspectRatio="xMidYMid meet" version="1.0"><defs><g/><clipPath id="572f8c1c32"><path d="M 0.472656 26.300781 L 31.679688 26.300781 L 31.679688 53.050781 L 0.472656 53.050781 Z M 0.472656 26.300781 " clip-rule="nonzero"/></clipPath></defs><g fill="#ffffff" fill-opacity="1"><g transform="translate(29.266452, 52.292703)"><g><path d="M 1.21875 -12.984375 C 1.21875 -15.535156 1.769531 -17.8125 2.875 -19.8125 C 3.976562 -21.820312 5.519531 -23.382812 7.5 -24.5 C 9.476562 -25.625 11.722656 -26.1875 14.234375 -26.1875 C 17.304688 -26.1875 19.9375 -25.375 22.125 -23.75 C 24.3125 -22.125 25.773438 -19.910156 26.515625 -17.109375 L 19.578125 -17.109375 C 19.066406 -18.191406 18.335938 -19.015625 17.390625 -19.578125 C 16.441406 -20.140625 15.363281 -20.421875 14.15625 -20.421875 C 12.21875 -20.421875 10.644531 -19.742188 9.4375 -18.390625 C 8.238281 -17.046875 7.640625 -15.242188 7.640625 -12.984375 C 7.640625 -10.722656 8.238281 -8.914062 9.4375 -7.5625 C 10.644531 -6.207031 12.21875 -5.53125 14.15625 -5.53125 C 15.363281 -5.53125 16.441406 -5.8125 17.390625 -6.375 C 18.335938 -6.945312 19.066406 -7.769531 19.578125 -8.84375 L 26.515625 -8.84375 C 25.773438 -6.039062 24.3125 -3.832031 22.125 -2.21875 C 19.9375 -0.613281 17.304688 0.1875 14.234375 0.1875 C 11.722656 0.1875 9.476562 -0.367188 7.5 -1.484375 C 5.519531 -2.609375 3.976562 -4.164062 2.875 -6.15625 C 1.769531 -8.144531 1.21875 -10.421875 1.21875 -12.984375 Z M 1.21875 -12.984375 "/></g></g></g><g fill="#ffffff" fill-opacity="1"><g transform="translate(57.364891, 52.292703)"><g><path d="M 24.703125 -25.890625 L 24.703125 0 L 18.40625 0 L 18.40625 -10.65625 L 8.59375 -10.65625 L 8.59375 0 L 2.28125 0 L 2.28125 -25.890625 L 8.59375 -25.890625 L 8.59375 -15.75 L 18.40625 -15.75 L 18.40625 -25.890625 Z M 24.703125 -25.890625 "/></g></g></g><g fill="#ffffff" fill-opacity="1"><g transform="translate(84.320224, 52.292703)"><g><path d="M 14.53125 0.265625 C 12.09375 0.265625 9.859375 -0.300781 7.828125 -1.4375 C 5.804688 -2.570312 4.195312 -4.148438 3 -6.171875 C 1.8125 -8.203125 1.21875 -10.484375 1.21875 -13.015625 C 1.21875 -15.546875 1.8125 -17.816406 3 -19.828125 C 4.195312 -21.847656 5.804688 -23.421875 7.828125 -24.546875 C 9.859375 -25.679688 12.09375 -26.25 14.53125 -26.25 C 16.957031 -26.25 19.1875 -25.679688 21.21875 -24.546875 C 23.25 -23.421875 24.847656 -21.847656 26.015625 -19.828125 C 27.179688 -17.816406 27.765625 -15.546875 27.765625 -13.015625 C 27.765625 -10.484375 27.175781 -8.203125 26 -6.171875 C 24.820312 -4.148438 23.222656 -2.570312 21.203125 -1.4375 C 19.179688 -0.300781 16.957031 0.265625 14.53125 0.265625 Z M 14.53125 -5.5 C 16.59375 -5.5 18.242188 -6.1875 19.484375 -7.5625 C 20.722656 -8.9375 21.34375 -10.753906 21.34375 -13.015625 C 21.34375 -15.304688 20.722656 -17.132812 19.484375 -18.5 C 18.242188 -19.863281 16.59375 -20.546875 14.53125 -20.546875 C 12.4375 -20.546875 10.769531 -19.867188 9.53125 -18.515625 C 8.289062 -17.160156 7.671875 -15.328125 7.671875 -13.015625 C 7.671875 -10.734375 8.289062 -8.910156 9.53125 -7.546875 C 10.769531 -6.179688 12.4375 -5.5 14.53125 -5.5 Z M 14.53125 -5.5 "/></g></g></g><g fill="#ffffff" fill-opacity="1"><g transform="translate(113.303653, 52.292703)"><g><path d="M 5.234375 0.296875 C 4.128906 0.296875 3.222656 -0.0234375 2.515625 -0.671875 C 1.816406 -1.328125 1.46875 -2.132812 1.46875 -3.09375 C 1.46875 -4.082031 1.816406 -4.90625 2.515625 -5.5625 C 3.222656 -6.226562 4.128906 -6.5625 5.234375 -6.5625 C 6.316406 -6.5625 7.207031 -6.226562 7.90625 -5.5625 C 8.601562 -4.90625 8.953125 -4.082031 8.953125 -3.09375 C 8.953125 -2.132812 8.601562 -1.328125 7.90625 -0.671875 C 7.207031 -0.0234375 6.316406 0.296875 5.234375 0.296875 Z M 5.234375 0.296875 "/></g></g></g><g fill="#ffffff" fill-opacity="1"><g transform="translate(123.702288, 52.292703)"><g><path d="M 1.21875 -12.984375 C 1.21875 -15.535156 1.769531 -17.8125 2.875 -19.8125 C 3.976562 -21.820312 5.519531 -23.382812 7.5 -24.5 C 9.476562 -25.625 11.722656 -26.1875 14.234375 -26.1875 C 17.304688 -26.1875 19.9375 -25.375 22.125 -23.75 C 24.3125 -22.125 25.773438 -19.910156 26.515625 -17.109375 L 19.578125 -17.109375 C 19.066406 -18.191406 18.335938 -19.015625 17.390625 -19.578125 C 16.441406 -20.140625 15.363281 -20.421875 14.15625 -20.421875 C 12.21875 -20.421875 10.644531 -19.742188 9.4375 -18.390625 C 8.238281 -17.046875 7.640625 -15.242188 7.640625 -12.984375 C 7.640625 -10.722656 8.238281 -8.914062 9.4375 -7.5625 C 10.644531 -6.207031 12.21875 -5.53125 14.15625 -5.53125 C 15.363281 -5.53125 16.441406 -5.8125 17.390625 -6.375 C 18.335938 -6.945312 19.066406 -7.769531 19.578125 -8.84375 L 26.515625 -8.84375 C 25.773438 -6.039062 24.3125 -3.832031 22.125 -2.21875 C 19.9375 -0.613281 17.304688 0.1875 14.234375 0.1875 C 11.722656 0.1875 9.476562 -0.367188 7.5 -1.484375 C 5.519531 -2.609375 3.976562 -4.164062 2.875 -6.15625 C 1.769531 -8.144531 1.21875 -10.421875 1.21875 -12.984375 Z M 1.21875 -12.984375 "/></g></g></g><g fill="#ffffff" fill-opacity="1"><g transform="translate(151.800727, 52.292703)"><g><path d="M 14.53125 0.265625 C 12.09375 0.265625 9.859375 -0.300781 7.828125 -1.4375 C 5.804688 -2.570312 4.195312 -4.148438 3 -6.171875 C 1.8125 -8.203125 1.21875 -10.484375 1.21875 -13.015625 C 1.21875 -15.546875 1.8125 -17.816406 3 -19.828125 C 4.195312 -21.847656 5.804688 -23.421875 7.828125 -24.546875 C 9.859375 -25.679688 12.09375 -26.25 14.53125 -26.25 C 16.957031 -26.25 19.1875 -25.679688 21.21875 -24.546875 C 23.25 -23.421875 24.847656 -21.847656 26.015625 -19.828125 C 27.179688 -17.816406 27.765625 -15.546875 27.765625 -13.015625 C 27.765625 -10.484375 27.175781 -8.203125 26 -6.171875 C 24.820312 -4.148438 23.222656 -2.570312 21.203125 -1.4375 C 19.179688 -0.300781 16.957031 0.265625 14.53125 0.265625 Z M 14.53125 -5.5 C 16.59375 -5.5 18.242188 -6.1875 19.484375 -7.5625 C 20.722656 -8.9375 21.34375 -10.753906 21.34375 -13.015625 C 21.34375 -15.304688 20.722656 -17.132812 19.484375 -18.5 C 18.242188 -19.863281 16.59375 -20.546875 14.53125 -20.546875 C 12.4375 -20.546875 10.769531 -19.867188 9.53125 -18.515625 C 8.289062 -17.160156 7.671875 -15.328125 7.671875 -13.015625 C 7.671875 -10.734375 8.289062 -8.910156 9.53125 -7.546875 C 10.769531 -6.179688 12.4375 -5.5 14.53125 -5.5 Z M 14.53125 -5.5 "/></g></g></g><g clip-path="url(#572f8c1c32)"><path fill="#2bf6fd" d="M 25.4375 47.703125 L 22.316406 53.046875 L 3.59375 53.046875 L 0.472656 47.703125 L 3.59375 42.355469 L 6.714844 37.003906 L 25.4375 37.003906 L 22.316406 42.347656 L 9.835938 42.347656 L 6.714844 47.703125 Z M 6.714844 26.300781 L 3.59375 31.648438 L 6.714844 37.003906 L 9.835938 31.65625 L 28.558594 31.65625 L 31.679688 26.300781 Z M 6.714844 26.300781 " fill-opacity="1" fill-rule="nonzero"/></g></svg>