<svg xmlns="http://www.w3.org/2000/svg" xmlns:xlink="http://www.w3.org/1999/xlink" width="1680" zoomAndPan="magnify" viewBox="0 0 1260 329.999987" height="440" preserveAspectRatio="xMidYMid meet" version="1.0"><defs><g/><clipPath id="450c0b153d"><path d="M 538.875 174.371094 L 570.375 174.371094 L 570.375 201.371094 L 538.875 201.371094 Z M 538.875 174.371094 " clip-rule="nonzero"/></clipPath></defs><rect x="-126" width="1512" fill="#ffffff" y="-32.999999" height="395.999984" fill-opacity="1"/><rect x="-126" width="1512" fill="#ffffff" y="-32.999999" height="395.999984" fill-opacity="1"/><rect x="-126" width="1512" fill="#090c1f" y="-32.999999" height="395.999984" fill-opacity="1"/><g fill="#ffffff" fill-opacity="1"><g transform="translate(567.938278, 200.606414)"><g><path d="M 1.234375 -13.109375 C 1.234375 -15.691406 1.789062 -17.992188 2.90625 -20.015625 C 4.019531 -22.035156 5.578125 -23.609375 7.578125 -24.734375 C 9.578125 -25.867188 11.84375 -26.4375 14.375 -26.4375 C 17.476562 -26.4375 20.132812 -25.613281 22.34375 -23.96875 C 24.550781 -22.332031 26.023438 -20.101562 26.765625 -17.28125 L 19.765625 -17.28125 C 19.242188 -18.375 18.503906 -19.203125 17.546875 -19.765625 C 16.597656 -20.335938 15.515625 -20.625 14.296875 -20.625 C 12.335938 -20.625 10.75 -19.941406 9.53125 -18.578125 C 8.3125 -17.210938 7.703125 -15.390625 7.703125 -13.109375 C 7.703125 -10.828125 8.3125 -9 9.53125 -7.625 C 10.75 -6.257812 12.335938 -5.578125 14.296875 -5.578125 C 15.515625 -5.578125 16.597656 -5.863281 17.546875 -6.4375 C 18.503906 -7.007812 19.242188 -7.84375 19.765625 -8.9375 L 26.765625 -8.9375 C 26.023438 -6.101562 24.550781 -3.875 22.34375 -2.25 C 20.132812 -0.625 17.476562 0.1875 14.375 0.1875 C 11.84375 0.1875 9.578125 -0.375 7.578125 -1.5 C 5.578125 -2.632812 4.019531 -4.207031 2.90625 -6.21875 C 1.789062 -8.226562 1.234375 -10.523438 1.234375 -13.109375 Z M 1.234375 -13.109375 "/></g></g></g><g fill="#ffffff" fill-opacity="1"><g transform="translate(596.299319, 200.606414)"><g><path d="M 24.953125 -26.140625 L 24.953125 0 L 18.578125 0 L 18.578125 -10.765625 L 8.671875 -10.765625 L 8.671875 0 L 2.3125 0 L 2.3125 -26.140625 L 8.671875 -26.140625 L 8.671875 -15.90625 L 18.578125 -15.90625 L 18.578125 -26.140625 Z M 24.953125 -26.140625 "/></g></g></g><g fill="#ffffff" fill-opacity="1"><g transform="translate(623.506572, 200.606414)"><g><path d="M 14.671875 0.265625 C 12.210938 0.265625 9.957031 -0.304688 7.90625 -1.453125 C 5.863281 -2.597656 4.238281 -4.191406 3.03125 -6.234375 C 1.832031 -8.285156 1.234375 -10.585938 1.234375 -13.140625 C 1.234375 -15.703125 1.832031 -18 3.03125 -20.03125 C 4.238281 -22.0625 5.863281 -23.648438 7.90625 -24.796875 C 9.957031 -25.941406 12.210938 -26.515625 14.671875 -26.515625 C 17.128906 -26.515625 19.378906 -25.941406 21.421875 -24.796875 C 23.472656 -23.648438 25.085938 -22.0625 26.265625 -20.03125 C 27.441406 -18 28.03125 -15.703125 28.03125 -13.140625 C 28.03125 -10.585938 27.4375 -8.285156 26.25 -6.234375 C 25.0625 -4.191406 23.445312 -2.597656 21.40625 -1.453125 C 19.375 -0.304688 17.128906 0.265625 14.671875 0.265625 Z M 14.671875 -5.546875 C 16.753906 -5.546875 18.421875 -6.238281 19.671875 -7.625 C 20.929688 -9.019531 21.5625 -10.859375 21.5625 -13.140625 C 21.5625 -15.453125 20.929688 -17.296875 19.671875 -18.671875 C 18.421875 -20.046875 16.753906 -20.734375 14.671875 -20.734375 C 12.554688 -20.734375 10.875 -20.050781 9.625 -18.6875 C 8.375 -17.320312 7.75 -15.472656 7.75 -13.140625 C 7.75 -10.835938 8.375 -8.992188 9.625 -7.609375 C 10.875 -6.234375 12.554688 -5.546875 14.671875 -5.546875 Z M 14.671875 -5.546875 "/></g></g></g><g fill="#ffffff" fill-opacity="1"><g transform="translate(652.760874, 200.606414)"><g><path d="M 5.28125 0.296875 C 4.164062 0.296875 3.253906 -0.03125 2.546875 -0.6875 C 1.835938 -1.34375 1.484375 -2.15625 1.484375 -3.125 C 1.484375 -4.113281 1.835938 -4.941406 2.546875 -5.609375 C 3.253906 -6.285156 4.164062 -6.625 5.28125 -6.625 C 6.375 -6.625 7.273438 -6.285156 7.984375 -5.609375 C 8.691406 -4.941406 9.046875 -4.113281 9.046875 -3.125 C 9.046875 -2.15625 8.691406 -1.34375 7.984375 -0.6875 C 7.273438 -0.03125 6.375 0.296875 5.28125 0.296875 Z M 5.28125 0.296875 "/></g></g></g><g fill="#ffffff" fill-opacity="1"><g transform="translate(663.256693, 200.606414)"><g><path d="M 1.234375 -13.109375 C 1.234375 -15.691406 1.789062 -17.992188 2.90625 -20.015625 C 4.019531 -22.035156 5.578125 -23.609375 7.578125 -24.734375 C 9.578125 -25.867188 11.84375 -26.4375 14.375 -26.4375 C 17.476562 -26.4375 20.132812 -25.613281 22.34375 -23.96875 C 24.550781 -22.332031 26.023438 -20.101562 26.765625 -17.28125 L 19.765625 -17.28125 C 19.242188 -18.375 18.503906 -19.203125 17.546875 -19.765625 C 16.597656 -20.335938 15.515625 -20.625 14.296875 -20.625 C 12.335938 -20.625 10.75 -19.941406 9.53125 -18.578125 C 8.3125 -17.210938 7.703125 -15.390625 7.703125 -13.109375 C 7.703125 -10.828125 8.3125 -9 9.53125 -7.625 C 10.75 -6.257812 12.335938 -5.578125 14.296875 -5.578125 C 15.515625 -5.578125 16.597656 -5.863281 17.546875 -6.4375 C 18.503906 -7.007812 19.242188 -7.84375 19.765625 -8.9375 L 26.765625 -8.9375 C 26.023438 -6.101562 24.550781 -3.875 22.34375 -2.25 C 20.132812 -0.625 17.476562 0.1875 14.375 0.1875 C 11.84375 0.1875 9.578125 -0.375 7.578125 -1.5 C 5.578125 -2.632812 4.019531 -4.207031 2.90625 -6.21875 C 1.789062 -8.226562 1.234375 -10.523438 1.234375 -13.109375 Z M 1.234375 -13.109375 "/></g></g></g><g fill="#ffffff" fill-opacity="1"><g transform="translate(691.617734, 200.606414)"><g><path d="M 14.671875 0.265625 C 12.210938 0.265625 9.957031 -0.304688 7.90625 -1.453125 C 5.863281 -2.597656 4.238281 -4.191406 3.03125 -6.234375 C 1.832031 -8.285156 1.234375 -10.585938 1.234375 -13.140625 C 1.234375 -15.703125 1.832031 -18 3.03125 -20.03125 C 4.238281 -22.0625 5.863281 -23.648438 7.90625 -24.796875 C 9.957031 -25.941406 12.210938 -26.515625 14.671875 -26.515625 C 17.128906 -26.515625 19.378906 -25.941406 21.421875 -24.796875 C 23.472656 -23.648438 25.085938 -22.0625 26.265625 -20.03125 C 27.441406 -18 28.03125 -15.703125 28.03125 -13.140625 C 28.03125 -10.585938 27.4375 -8.285156 26.25 -6.234375 C 25.0625 -4.191406 23.445312 -2.597656 21.40625 -1.453125 C 19.375 -0.304688 17.128906 0.265625 14.671875 0.265625 Z M 14.671875 -5.546875 C 16.753906 -5.546875 18.421875 -6.238281 19.671875 -7.625 C 20.929688 -9.019531 21.5625 -10.859375 21.5625 -13.140625 C 21.5625 -15.453125 20.929688 -17.296875 19.671875 -18.671875 C 18.421875 -20.046875 16.753906 -20.734375 14.671875 -20.734375 C 12.554688 -20.734375 10.875 -20.050781 9.625 -18.6875 C 8.375 -17.320312 7.75 -15.472656 7.75 -13.140625 C 7.75 -10.835938 8.375 -8.992188 9.625 -7.609375 C 10.875 -6.234375 12.554688 -5.546875 14.671875 -5.546875 Z M 14.671875 -5.546875 "/></g></g></g><g clip-path="url(#450c0b153d)"><path fill="#2bf6fd" d="M 564.074219 195.972656 L 560.925781 201.367188 L 542.023438 201.367188 L 538.875 195.972656 L 542.023438 190.574219 L 545.175781 185.171875 L 564.074219 185.171875 L 560.925781 190.570312 L 548.324219 190.570312 L 545.175781 195.972656 Z M 545.175781 174.375 L 542.023438 179.769531 L 545.175781 185.171875 L 548.324219 179.777344 L 567.226562 179.777344 L 570.375 174.375 Z M 545.175781 174.375 " fill-opacity="1" fill-rule="nonzero"/></g><g fill="#ffffff" fill-opacity="1"><g transform="translate(383.609467, 136.224085)"><g><path d="M 3.03125 -11.21875 L 3.03125 -7.015625 L 7.59375 -7.015625 L 7.59375 -5.671875 L 3.03125 -5.671875 L 3.03125 -1.34375 L 8.140625 -1.34375 L 8.140625 0 L 1.390625 0 L 1.390625 -12.5625 L 8.140625 -12.5625 L 8.140625 -11.21875 Z M 3.03125 -11.21875 "/></g></g></g><g fill="#ffffff" fill-opacity="1"><g transform="translate(407.24344, 136.224085)"><g><path d="M 6.515625 -6.265625 L 10.375 0 L 8.515625 0 L 5.515625 -4.890625 L 2.640625 0 L 0.828125 0 L 4.65625 -6.265625 L 0.8125 -12.546875 L 2.640625 -12.546875 L 5.671875 -7.625 L 8.546875 -12.546875 L 10.390625 -12.546875 Z M 6.515625 -6.265625 "/></g></g></g><g fill="#ffffff" fill-opacity="1"><g transform="translate(432.82141, 136.224085)"><g><path d="M 9.78125 -8.875 C 9.78125 -7.832031 9.421875 -6.960938 8.703125 -6.265625 C 7.984375 -5.578125 6.894531 -5.234375 5.4375 -5.234375 L 3.03125 -5.234375 L 3.03125 0 L 1.390625 0 L 1.390625 -12.546875 L 5.4375 -12.546875 C 6.851562 -12.546875 7.929688 -12.203125 8.671875 -11.515625 C 9.410156 -10.835938 9.78125 -9.957031 9.78125 -8.875 Z M 5.4375 -6.59375 C 6.34375 -6.59375 7.007812 -6.789062 7.4375 -7.1875 C 7.875 -7.582031 8.09375 -8.144531 8.09375 -8.875 C 8.09375 -10.425781 7.207031 -11.203125 5.4375 -11.203125 L 3.03125 -11.203125 L 3.03125 -6.59375 Z M 5.4375 -6.59375 "/></g></g></g><g fill="#ffffff" fill-opacity="1"><g transform="translate(457.643385, 136.224085)"><g><path d="M 3.03125 -11.21875 L 3.03125 -7.015625 L 7.59375 -7.015625 L 7.59375 -5.671875 L 3.03125 -5.671875 L 3.03125 -1.34375 L 8.140625 -1.34375 L 8.140625 0 L 1.390625 0 L 1.390625 -12.5625 L 8.140625 -12.5625 L 8.140625 -11.21875 Z M 3.03125 -11.21875 "/></g></g></g><g fill="#ffffff" fill-opacity="1"><g transform="translate(481.277356, 136.224085)"><g><path d="M 7.984375 0 L 5 -5.125 L 3.03125 -5.125 L 3.03125 0 L 1.390625 0 L 1.390625 -12.546875 L 5.4375 -12.546875 C 6.382812 -12.546875 7.179688 -12.382812 7.828125 -12.0625 C 8.484375 -11.738281 8.972656 -11.300781 9.296875 -10.75 C 9.628906 -10.195312 9.796875 -9.566406 9.796875 -8.859375 C 9.796875 -7.992188 9.546875 -7.226562 9.046875 -6.5625 C 8.546875 -5.90625 7.796875 -5.46875 6.796875 -5.25 L 9.953125 0 Z M 3.03125 -6.4375 L 5.4375 -6.4375 C 6.320312 -6.4375 6.984375 -6.65625 7.421875 -7.09375 C 7.867188 -7.539062 8.09375 -8.128906 8.09375 -8.859375 C 8.09375 -9.597656 7.875 -10.171875 7.4375 -10.578125 C 7 -10.992188 6.332031 -11.203125 5.4375 -11.203125 L 3.03125 -11.203125 Z M 3.03125 -6.4375 "/></g></g></g><g fill="#ffffff" fill-opacity="1"><g transform="translate(506.621325, 136.224085)"><g><path d="M 3.03125 -12.546875 L 3.03125 0 L 1.390625 0 L 1.390625 -12.546875 Z M 3.03125 -12.546875 "/></g></g></g><g fill="#ffffff" fill-opacity="1"><g transform="translate(525.449303, 136.224085)"><g><path d="M 3.03125 -11.21875 L 3.03125 -7.015625 L 7.59375 -7.015625 L 7.59375 -5.671875 L 3.03125 -5.671875 L 3.03125 -1.34375 L 8.140625 -1.34375 L 8.140625 0 L 1.390625 0 L 1.390625 -12.5625 L 8.140625 -12.5625 L 8.140625 -11.21875 Z M 3.03125 -11.21875 "/></g></g></g><g fill="#ffffff" fill-opacity="1"><g transform="translate(549.083274, 136.224085)"><g><path d="M 11.25 0 L 9.609375 0 L 3.03125 -9.984375 L 3.03125 0 L 1.390625 0 L 1.390625 -12.5625 L 3.03125 -12.5625 L 9.609375 -2.59375 L 9.609375 -12.5625 L 11.25 -12.5625 Z M 11.25 0 "/></g></g></g><g fill="#ffffff" fill-opacity="1"><g transform="translate(576.13723, 136.224085)"><g><path d="M 0.78125 -6.28125 C 0.78125 -7.507812 1.054688 -8.609375 1.609375 -9.578125 C 2.160156 -10.554688 2.910156 -11.320312 3.859375 -11.875 C 4.816406 -12.425781 5.875 -12.703125 7.03125 -12.703125 C 8.40625 -12.703125 9.601562 -12.375 10.625 -11.71875 C 11.644531 -11.0625 12.390625 -10.125 12.859375 -8.90625 L 10.890625 -8.90625 C 10.546875 -9.664062 10.046875 -10.25 9.390625 -10.65625 C 8.734375 -11.0625 7.945312 -11.265625 7.03125 -11.265625 C 6.15625 -11.265625 5.367188 -11.0625 4.671875 -10.65625 C 3.984375 -10.25 3.441406 -9.671875 3.046875 -8.921875 C 2.648438 -8.171875 2.453125 -7.289062 2.453125 -6.28125 C 2.453125 -5.28125 2.648438 -4.40625 3.046875 -3.65625 C 3.441406 -2.90625 3.984375 -2.328125 4.671875 -1.921875 C 5.367188 -1.515625 6.15625 -1.3125 7.03125 -1.3125 C 7.945312 -1.3125 8.734375 -1.507812 9.390625 -1.90625 C 10.046875 -2.3125 10.546875 -2.894531 10.890625 -3.65625 L 12.859375 -3.65625 C 12.390625 -2.457031 11.644531 -1.53125 10.625 -0.875 C 9.601562 -0.21875 8.40625 0.109375 7.03125 0.109375 C 5.875 0.109375 4.816406 -0.160156 3.859375 -0.703125 C 2.910156 -1.253906 2.160156 -2.015625 1.609375 -2.984375 C 1.054688 -3.960938 0.78125 -5.0625 0.78125 -6.28125 Z M 0.78125 -6.28125 "/></g></g></g><g fill="#ffffff" fill-opacity="1"><g transform="translate(604.43318, 136.224085)"><g><path d="M 3.03125 -11.21875 L 3.03125 -7.015625 L 7.59375 -7.015625 L 7.59375 -5.671875 L 3.03125 -5.671875 L 3.03125 -1.34375 L 8.140625 -1.34375 L 8.140625 0 L 1.390625 0 L 1.390625 -12.5625 L 8.140625 -12.5625 L 8.140625 -11.21875 Z M 3.03125 -11.21875 "/></g></g></g><g fill="#ffffff" fill-opacity="1"><g transform="translate(628.06715, 136.224085)"><g/></g></g><g fill="#ffffff" fill-opacity="1"><g transform="translate(647.273127, 136.224085)"><g><path d="M 9.109375 -12.546875 L 9.109375 -11.21875 L 5.6875 -11.21875 L 5.6875 0 L 4.046875 0 L 4.046875 -11.21875 L 0.609375 -11.21875 L 0.609375 -12.546875 Z M 9.109375 -12.546875 "/></g></g></g><g fill="#ffffff" fill-opacity="1"><g transform="translate(671.411095, 136.224085)"><g><path d="M 11.046875 -12.546875 L 11.046875 0 L 9.40625 0 L 9.40625 -5.6875 L 3.03125 -5.6875 L 3.03125 0 L 1.390625 0 L 1.390625 -12.546875 L 3.03125 -12.546875 L 3.03125 -7.03125 L 9.40625 -7.03125 L 9.40625 -12.546875 Z M 11.046875 -12.546875 "/></g></g></g><g fill="#ffffff" fill-opacity="1"><g transform="translate(698.267058, 136.224085)"><g><path d="M 3.03125 -11.21875 L 3.03125 -7.015625 L 7.59375 -7.015625 L 7.59375 -5.671875 L 3.03125 -5.671875 L 3.03125 -1.34375 L 8.140625 -1.34375 L 8.140625 0 L 1.390625 0 L 1.390625 -12.5625 L 8.140625 -12.5625 L 8.140625 -11.21875 Z M 3.03125 -11.21875 "/></g></g></g><g fill="#ffffff" fill-opacity="1"><g transform="translate(721.901028, 136.224085)"><g/></g></g><g fill="#ffffff" fill-opacity="1"><g transform="translate(741.107005, 136.224085)"><g><path d="M 8.484375 -12.546875 L 8.484375 -11.21875 L 3.03125 -11.21875 L 3.03125 -6.984375 L 7.453125 -6.984375 L 7.453125 -5.65625 L 3.03125 -5.65625 L 3.03125 0 L 1.390625 0 L 1.390625 -12.546875 Z M 8.484375 -12.546875 "/></g></g></g><g fill="#ffffff" fill-opacity="1"><g transform="translate(764.578972, 136.224085)"><g><path d="M 2.984375 -12.546875 L 2.984375 -4.609375 C 2.984375 -3.492188 3.253906 -2.664062 3.796875 -2.125 C 4.347656 -1.582031 5.109375 -1.3125 6.078125 -1.3125 C 7.046875 -1.3125 7.800781 -1.582031 8.34375 -2.125 C 8.882812 -2.664062 9.15625 -3.492188 9.15625 -4.609375 L 9.15625 -12.546875 L 10.796875 -12.546875 L 10.796875 -4.625 C 10.796875 -3.582031 10.585938 -2.703125 10.171875 -1.984375 C 9.753906 -1.273438 9.1875 -0.742188 8.46875 -0.390625 C 7.75 -0.046875 6.945312 0.125 6.0625 0.125 C 5.175781 0.125 4.375 -0.046875 3.65625 -0.390625 C 2.945312 -0.742188 2.382812 -1.273438 1.96875 -1.984375 C 1.550781 -2.703125 1.34375 -3.582031 1.34375 -4.625 L 1.34375 -12.546875 Z M 2.984375 -12.546875 "/></g></g></g><g fill="#ffffff" fill-opacity="1"><g transform="translate(791.12892, 136.224085)"><g><path d="M 9.109375 -12.546875 L 9.109375 -11.21875 L 5.6875 -11.21875 L 5.6875 0 L 4.046875 0 L 4.046875 -11.21875 L 0.609375 -11.21875 L 0.609375 -12.546875 Z M 9.109375 -12.546875 "/></g></g></g><g fill="#ffffff" fill-opacity="1"><g transform="translate(815.266888, 136.224085)"><g><path d="M 2.984375 -12.546875 L 2.984375 -4.609375 C 2.984375 -3.492188 3.253906 -2.664062 3.796875 -2.125 C 4.347656 -1.582031 5.109375 -1.3125 6.078125 -1.3125 C 7.046875 -1.3125 7.800781 -1.582031 8.34375 -2.125 C 8.882812 -2.664062 9.15625 -3.492188 9.15625 -4.609375 L 9.15625 -12.546875 L 10.796875 -12.546875 L 10.796875 -4.625 C 10.796875 -3.582031 10.585938 -2.703125 10.171875 -1.984375 C 9.753906 -1.273438 9.1875 -0.742188 8.46875 -0.390625 C 7.75 -0.046875 6.945312 0.125 6.0625 0.125 C 5.175781 0.125 4.375 -0.046875 3.65625 -0.390625 C 2.945312 -0.742188 2.382812 -1.273438 1.96875 -1.984375 C 1.550781 -2.703125 1.34375 -3.582031 1.34375 -4.625 L 1.34375 -12.546875 Z M 2.984375 -12.546875 "/></g></g></g><g fill="#ffffff" fill-opacity="1"><g transform="translate(841.816858, 136.224085)"><g><path d="M 7.984375 0 L 5 -5.125 L 3.03125 -5.125 L 3.03125 0 L 1.390625 0 L 1.390625 -12.546875 L 5.4375 -12.546875 C 6.382812 -12.546875 7.179688 -12.382812 7.828125 -12.0625 C 8.484375 -11.738281 8.972656 -11.300781 9.296875 -10.75 C 9.628906 -10.195312 9.796875 -9.566406 9.796875 -8.859375 C 9.796875 -7.992188 9.546875 -7.226562 9.046875 -6.5625 C 8.546875 -5.90625 7.796875 -5.46875 6.796875 -5.25 L 9.953125 0 Z M 3.03125 -6.4375 L 5.4375 -6.4375 C 6.320312 -6.4375 6.984375 -6.65625 7.421875 -7.09375 C 7.867188 -7.539062 8.09375 -8.128906 8.09375 -8.859375 C 8.09375 -9.597656 7.875 -10.171875 7.4375 -10.578125 C 7 -10.992188 6.332031 -11.203125 5.4375 -11.203125 L 3.03125 -11.203125 Z M 3.03125 -6.4375 "/></g></g></g><g fill="#ffffff" fill-opacity="1"><g transform="translate(867.16085, 136.224085)"><g><path d="M 3.03125 -11.21875 L 3.03125 -7.015625 L 7.59375 -7.015625 L 7.59375 -5.671875 L 3.03125 -5.671875 L 3.03125 -1.34375 L 8.140625 -1.34375 L 8.140625 0 L 1.390625 0 L 1.390625 -12.5625 L 8.140625 -12.5625 L 8.140625 -11.21875 Z M 3.03125 -11.21875 "/></g></g></g><g fill="#ffffff" fill-opacity="1"><g transform="translate(316.812597, 160.974083)"><g><path d="M 7.078125 0.125 C 5.910156 0.125 4.847656 -0.144531 3.890625 -0.6875 C 2.929688 -1.238281 2.171875 -2.003906 1.609375 -2.984375 C 1.054688 -3.960938 0.78125 -5.0625 0.78125 -6.28125 C 0.78125 -7.507812 1.054688 -8.609375 1.609375 -9.578125 C 2.171875 -10.554688 2.929688 -11.316406 3.890625 -11.859375 C 4.847656 -12.410156 5.910156 -12.6875 7.078125 -12.6875 C 8.253906 -12.6875 9.320312 -12.410156 10.28125 -11.859375 C 11.238281 -11.316406 11.992188 -10.5625 12.546875 -9.59375 C 13.097656 -8.625 13.375 -7.519531 13.375 -6.28125 C 13.375 -5.039062 13.097656 -3.9375 12.546875 -2.96875 C 11.992188 -2 11.238281 -1.238281 10.28125 -0.6875 C 9.320312 -0.144531 8.253906 0.125 7.078125 0.125 Z M 7.078125 -1.296875 C 7.953125 -1.296875 8.738281 -1.5 9.4375 -1.90625 C 10.144531 -2.3125 10.695312 -2.890625 11.09375 -3.640625 C 11.5 -4.398438 11.703125 -5.28125 11.703125 -6.28125 C 11.703125 -7.289062 11.5 -8.171875 11.09375 -8.921875 C 10.695312 -9.671875 10.148438 -10.25 9.453125 -10.65625 C 8.753906 -11.0625 7.960938 -11.265625 7.078125 -11.265625 C 6.179688 -11.265625 5.382812 -11.0625 4.6875 -10.65625 C 4 -10.25 3.453125 -9.671875 3.046875 -8.921875 C 2.648438 -8.171875 2.453125 -7.289062 2.453125 -6.28125 C 2.453125 -5.28125 2.648438 -4.398438 3.046875 -3.640625 C 3.453125 -2.890625 4.003906 -2.3125 4.703125 -1.90625 C 5.410156 -1.5 6.203125 -1.296875 7.078125 -1.296875 Z M 7.078125 -1.296875 "/></g></g></g><g fill="#ffffff" fill-opacity="1"><g transform="translate(345.360549, 160.974083)"><g><path d="M 8.484375 -12.546875 L 8.484375 -11.21875 L 3.03125 -11.21875 L 3.03125 -6.984375 L 7.453125 -6.984375 L 7.453125 -5.65625 L 3.03125 -5.65625 L 3.03125 0 L 1.390625 0 L 1.390625 -12.546875 Z M 8.484375 -12.546875 "/></g></g></g><g fill="#ffffff" fill-opacity="1"><g transform="translate(368.832519, 160.974083)"><g/></g></g><g fill="#ffffff" fill-opacity="1"><g transform="translate(388.038502, 160.974083)"><g><path d="M 5.359375 0.125 C 4.535156 0.125 3.796875 -0.0195312 3.140625 -0.3125 C 2.484375 -0.601562 1.96875 -1.007812 1.59375 -1.53125 C 1.226562 -2.0625 1.039062 -2.664062 1.03125 -3.34375 L 2.765625 -3.34375 C 2.828125 -2.757812 3.070312 -2.265625 3.5 -1.859375 C 3.925781 -1.460938 4.546875 -1.265625 5.359375 -1.265625 C 6.140625 -1.265625 6.753906 -1.457031 7.203125 -1.84375 C 7.660156 -2.238281 7.890625 -2.738281 7.890625 -3.34375 C 7.890625 -3.820312 7.753906 -4.210938 7.484375 -4.515625 C 7.222656 -4.816406 6.894531 -5.046875 6.5 -5.203125 C 6.101562 -5.359375 5.566406 -5.523438 4.890625 -5.703125 C 4.066406 -5.921875 3.40625 -6.132812 2.90625 -6.34375 C 2.40625 -6.5625 1.976562 -6.898438 1.625 -7.359375 C 1.269531 -7.828125 1.09375 -8.453125 1.09375 -9.234375 C 1.09375 -9.921875 1.265625 -10.523438 1.609375 -11.046875 C 1.960938 -11.578125 2.453125 -11.984375 3.078125 -12.265625 C 3.710938 -12.554688 4.4375 -12.703125 5.25 -12.703125 C 6.425781 -12.703125 7.390625 -12.40625 8.140625 -11.8125 C 8.890625 -11.226562 9.3125 -10.453125 9.40625 -9.484375 L 7.609375 -9.484375 C 7.554688 -9.960938 7.304688 -10.382812 6.859375 -10.75 C 6.410156 -11.113281 5.820312 -11.296875 5.09375 -11.296875 C 4.40625 -11.296875 3.84375 -11.117188 3.40625 -10.765625 C 2.976562 -10.410156 2.765625 -9.914062 2.765625 -9.28125 C 2.765625 -8.832031 2.894531 -8.460938 3.15625 -8.171875 C 3.414062 -7.878906 3.734375 -7.660156 4.109375 -7.515625 C 4.492188 -7.367188 5.023438 -7.195312 5.703125 -7 C 6.535156 -6.769531 7.203125 -6.546875 7.703125 -6.328125 C 8.203125 -6.109375 8.632812 -5.765625 9 -5.296875 C 9.363281 -4.835938 9.546875 -4.210938 9.546875 -3.421875 C 9.546875 -2.804688 9.378906 -2.226562 9.046875 -1.6875 C 8.722656 -1.144531 8.242188 -0.707031 7.609375 -0.375 C 6.972656 -0.0390625 6.222656 0.125 5.359375 0.125 Z M 5.359375 0.125 "/></g></g></g><g fill="#ffffff" fill-opacity="1"><g transform="translate(413.004461, 160.974083)"><g><path d="M 7.078125 0.125 C 5.910156 0.125 4.847656 -0.144531 3.890625 -0.6875 C 2.929688 -1.238281 2.171875 -2.003906 1.609375 -2.984375 C 1.054688 -3.960938 0.78125 -5.0625 0.78125 -6.28125 C 0.78125 -7.507812 1.054688 -8.609375 1.609375 -9.578125 C 2.171875 -10.554688 2.929688 -11.316406 3.890625 -11.859375 C 4.847656 -12.410156 5.910156 -12.6875 7.078125 -12.6875 C 8.253906 -12.6875 9.320312 -12.410156 10.28125 -11.859375 C 11.238281 -11.316406 11.992188 -10.5625 12.546875 -9.59375 C 13.097656 -8.625 13.375 -7.519531 13.375 -6.28125 C 13.375 -5.039062 13.097656 -3.9375 12.546875 -2.96875 C 11.992188 -2 11.238281 -1.238281 10.28125 -0.6875 C 9.320312 -0.144531 8.253906 0.125 7.078125 0.125 Z M 7.078125 -1.296875 C 7.953125 -1.296875 8.738281 -1.5 9.4375 -1.90625 C 10.144531 -2.3125 10.695312 -2.890625 11.09375 -3.640625 C 11.5 -4.398438 11.703125 -5.28125 11.703125 -6.28125 C 11.703125 -7.289062 11.5 -8.171875 11.09375 -8.921875 C 10.695312 -9.671875 10.148438 -10.25 9.453125 -10.65625 C 8.753906 -11.0625 7.960938 -11.265625 7.078125 -11.265625 C 6.179688 -11.265625 5.382812 -11.0625 4.6875 -10.65625 C 4 -10.25 3.453125 -9.671875 3.046875 -8.921875 C 2.648438 -8.171875 2.453125 -7.289062 2.453125 -6.28125 C 2.453125 -5.28125 2.648438 -4.398438 3.046875 -3.640625 C 3.453125 -2.890625 4.003906 -2.3125 4.703125 -1.90625 C 5.410156 -1.5 6.203125 -1.296875 7.078125 -1.296875 Z M 7.078125 -1.296875 "/></g></g></g><g fill="#ffffff" fill-opacity="1"><g transform="translate(441.55241, 160.974083)"><g><path d="M 8.484375 -12.546875 L 8.484375 -11.21875 L 3.03125 -11.21875 L 3.03125 -6.984375 L 7.453125 -6.984375 L 7.453125 -5.65625 L 3.03125 -5.65625 L 3.03125 0 L 1.390625 0 L 1.390625 -12.546875 Z M 8.484375 -12.546875 "/></g></g></g><g fill="#ffffff" fill-opacity="1"><g transform="translate(465.024377, 160.974083)"><g><path d="M 9.109375 -12.546875 L 9.109375 -11.21875 L 5.6875 -11.21875 L 5.6875 0 L 4.046875 0 L 4.046875 -11.21875 L 0.609375 -11.21875 L 0.609375 -12.546875 Z M 9.109375 -12.546875 "/></g></g></g><g fill="#ffffff" fill-opacity="1"><g transform="translate(489.162345, 160.974083)"><g><path d="M 17.15625 -12.546875 L 13.515625 0 L 11.6875 0 L 8.765625 -10.09375 L 5.734375 0 L 3.921875 0.015625 L 0.40625 -12.546875 L 2.15625 -12.546875 L 4.890625 -1.90625 L 7.921875 -12.546875 L 9.75 -12.546875 L 12.640625 -1.9375 L 15.390625 -12.546875 Z M 17.15625 -12.546875 "/></g></g></g><g fill="#ffffff" fill-opacity="1"><g transform="translate(521.130291, 160.974083)"><g><path d="M 8.796875 -2.796875 L 3.328125 -2.796875 L 2.328125 0 L 0.59375 0 L 5.125 -12.46875 L 7.015625 -12.46875 L 11.53125 0 L 9.8125 0 Z M 8.328125 -4.125 L 6.0625 -10.453125 L 3.796875 -4.125 Z M 8.328125 -4.125 "/></g></g></g><g fill="#ffffff" fill-opacity="1"><g transform="translate(547.662249, 160.974083)"><g><path d="M 7.984375 0 L 5 -5.125 L 3.03125 -5.125 L 3.03125 0 L 1.390625 0 L 1.390625 -12.546875 L 5.4375 -12.546875 C 6.382812 -12.546875 7.179688 -12.382812 7.828125 -12.0625 C 8.484375 -11.738281 8.972656 -11.300781 9.296875 -10.75 C 9.628906 -10.195312 9.796875 -9.566406 9.796875 -8.859375 C 9.796875 -7.992188 9.546875 -7.226562 9.046875 -6.5625 C 8.546875 -5.90625 7.796875 -5.46875 6.796875 -5.25 L 9.953125 0 Z M 3.03125 -6.4375 L 5.4375 -6.4375 C 6.320312 -6.4375 6.984375 -6.65625 7.421875 -7.09375 C 7.867188 -7.539062 8.09375 -8.128906 8.09375 -8.859375 C 8.09375 -9.597656 7.875 -10.171875 7.4375 -10.578125 C 7 -10.992188 6.332031 -11.203125 5.4375 -11.203125 L 3.03125 -11.203125 Z M 3.03125 -6.4375 "/></g></g></g><g fill="#ffffff" fill-opacity="1"><g transform="translate(573.006218, 160.974083)"><g><path d="M 3.03125 -11.21875 L 3.03125 -7.015625 L 7.59375 -7.015625 L 7.59375 -5.671875 L 3.03125 -5.671875 L 3.03125 -1.34375 L 8.140625 -1.34375 L 8.140625 0 L 1.390625 0 L 1.390625 -12.5625 L 8.140625 -12.5625 L 8.140625 -11.21875 Z M 3.03125 -11.21875 "/></g></g></g><g fill="#ffffff" fill-opacity="1"><g transform="translate(596.640189, 160.974083)"><g/></g></g><g fill="#ffffff" fill-opacity="1"><g transform="translate(615.846165, 160.974083)"><g><path d="M 3.03125 -11.21875 L 3.03125 -7.015625 L 7.59375 -7.015625 L 7.59375 -5.671875 L 3.03125 -5.671875 L 3.03125 -1.34375 L 8.140625 -1.34375 L 8.140625 0 L 1.390625 0 L 1.390625 -12.5625 L 8.140625 -12.5625 L 8.140625 -11.21875 Z M 3.03125 -11.21875 "/></g></g></g><g fill="#ffffff" fill-opacity="1"><g transform="translate(639.480136, 160.974083)"><g><path d="M 11.25 0 L 9.609375 0 L 3.03125 -9.984375 L 3.03125 0 L 1.390625 0 L 1.390625 -12.5625 L 3.03125 -12.5625 L 9.609375 -2.59375 L 9.609375 -12.5625 L 11.25 -12.5625 Z M 11.25 0 "/></g></g></g><g fill="#ffffff" fill-opacity="1"><g transform="translate(666.534103, 160.974083)"><g><path d="M 10.890625 -8.90625 C 10.546875 -9.644531 10.039062 -10.210938 9.375 -10.609375 C 8.71875 -11.015625 7.953125 -11.21875 7.078125 -11.21875 C 6.203125 -11.21875 5.410156 -11.015625 4.703125 -10.609375 C 4.003906 -10.210938 3.453125 -9.640625 3.046875 -8.890625 C 2.648438 -8.140625 2.453125 -7.269531 2.453125 -6.28125 C 2.453125 -5.300781 2.648438 -4.4375 3.046875 -3.6875 C 3.453125 -2.945312 4.003906 -2.375 4.703125 -1.96875 C 5.410156 -1.570312 6.203125 -1.375 7.078125 -1.375 C 8.296875 -1.375 9.300781 -1.738281 10.09375 -2.46875 C 10.882812 -3.195312 11.347656 -4.1875 11.484375 -5.4375 L 6.484375 -5.4375 L 6.484375 -6.765625 L 13.234375 -6.765625 L 13.234375 -5.515625 C 13.128906 -4.472656 12.800781 -3.523438 12.25 -2.671875 C 11.707031 -1.816406 10.984375 -1.140625 10.078125 -0.640625 C 9.179688 -0.140625 8.179688 0.109375 7.078125 0.109375 C 5.910156 0.109375 4.847656 -0.160156 3.890625 -0.703125 C 2.929688 -1.253906 2.171875 -2.015625 1.609375 -2.984375 C 1.054688 -3.960938 0.78125 -5.0625 0.78125 -6.28125 C 0.78125 -7.507812 1.054688 -8.609375 1.609375 -9.578125 C 2.171875 -10.554688 2.929688 -11.316406 3.890625 -11.859375 C 4.847656 -12.410156 5.910156 -12.6875 7.078125 -12.6875 C 8.410156 -12.6875 9.585938 -12.351562 10.609375 -11.6875 C 11.640625 -11.03125 12.390625 -10.101562 12.859375 -8.90625 Z M 10.890625 -8.90625 "/></g></g></g><g fill="#ffffff" fill-opacity="1"><g transform="translate(694.938062, 160.974083)"><g><path d="M 3.03125 -12.546875 L 3.03125 0 L 1.390625 0 L 1.390625 -12.546875 Z M 3.03125 -12.546875 "/></g></g></g><g fill="#ffffff" fill-opacity="1"><g transform="translate(713.76604, 160.974083)"><g><path d="M 11.25 0 L 9.609375 0 L 3.03125 -9.984375 L 3.03125 0 L 1.390625 0 L 1.390625 -12.5625 L 3.03125 -12.5625 L 9.609375 -2.59375 L 9.609375 -12.5625 L 11.25 -12.5625 Z M 11.25 0 "/></g></g></g><g fill="#ffffff" fill-opacity="1"><g transform="translate(740.820008, 160.974083)"><g><path d="M 3.03125 -11.21875 L 3.03125 -7.015625 L 7.59375 -7.015625 L 7.59375 -5.671875 L 3.03125 -5.671875 L 3.03125 -1.34375 L 8.140625 -1.34375 L 8.140625 0 L 1.390625 0 L 1.390625 -12.5625 L 8.140625 -12.5625 L 8.140625 -11.21875 Z M 3.03125 -11.21875 "/></g></g></g><g fill="#ffffff" fill-opacity="1"><g transform="translate(764.453978, 160.974083)"><g><path d="M 3.03125 -11.21875 L 3.03125 -7.015625 L 7.59375 -7.015625 L 7.59375 -5.671875 L 3.03125 -5.671875 L 3.03125 -1.34375 L 8.140625 -1.34375 L 8.140625 0 L 1.390625 0 L 1.390625 -12.5625 L 8.140625 -12.5625 L 8.140625 -11.21875 Z M 3.03125 -11.21875 "/></g></g></g><g fill="#ffffff" fill-opacity="1"><g transform="translate(788.087949, 160.974083)"><g><path d="M 7.984375 0 L 5 -5.125 L 3.03125 -5.125 L 3.03125 0 L 1.390625 0 L 1.390625 -12.546875 L 5.4375 -12.546875 C 6.382812 -12.546875 7.179688 -12.382812 7.828125 -12.0625 C 8.484375 -11.738281 8.972656 -11.300781 9.296875 -10.75 C 9.628906 -10.195312 9.796875 -9.566406 9.796875 -8.859375 C 9.796875 -7.992188 9.546875 -7.226562 9.046875 -6.5625 C 8.546875 -5.90625 7.796875 -5.46875 6.796875 -5.25 L 9.953125 0 Z M 3.03125 -6.4375 L 5.4375 -6.4375 C 6.320312 -6.4375 6.984375 -6.65625 7.421875 -7.09375 C 7.867188 -7.539062 8.09375 -8.128906 8.09375 -8.859375 C 8.09375 -9.597656 7.875 -10.171875 7.4375 -10.578125 C 7 -10.992188 6.332031 -11.203125 5.4375 -11.203125 L 3.03125 -11.203125 Z M 3.03125 -6.4375 "/></g></g></g><g fill="#ffffff" fill-opacity="1"><g transform="translate(813.431941, 160.974083)"><g><path d="M 3.03125 -12.546875 L 3.03125 0 L 1.390625 0 L 1.390625 -12.546875 Z M 3.03125 -12.546875 "/></g></g></g><g fill="#ffffff" fill-opacity="1"><g transform="translate(832.259942, 160.974083)"><g><path d="M 11.25 0 L 9.609375 0 L 3.03125 -9.984375 L 3.03125 0 L 1.390625 0 L 1.390625 -12.5625 L 3.03125 -12.5625 L 9.609375 -2.59375 L 9.609375 -12.5625 L 11.25 -12.5625 Z M 11.25 0 "/></g></g></g><g fill="#ffffff" fill-opacity="1"><g transform="translate(859.31391, 160.974083)"><g><path d="M 10.890625 -8.90625 C 10.546875 -9.644531 10.039062 -10.210938 9.375 -10.609375 C 8.71875 -11.015625 7.953125 -11.21875 7.078125 -11.21875 C 6.203125 -11.21875 5.410156 -11.015625 4.703125 -10.609375 C 4.003906 -10.210938 3.453125 -9.640625 3.046875 -8.890625 C 2.648438 -8.140625 2.453125 -7.269531 2.453125 -6.28125 C 2.453125 -5.300781 2.648438 -4.4375 3.046875 -3.6875 C 3.453125 -2.945312 4.003906 -2.375 4.703125 -1.96875 C 5.410156 -1.570312 6.203125 -1.375 7.078125 -1.375 C 8.296875 -1.375 9.300781 -1.738281 10.09375 -2.46875 C 10.882812 -3.195312 11.347656 -4.1875 11.484375 -5.4375 L 6.484375 -5.4375 L 6.484375 -6.765625 L 13.234375 -6.765625 L 13.234375 -5.515625 C 13.128906 -4.472656 12.800781 -3.523438 12.25 -2.671875 C 11.707031 -1.816406 10.984375 -1.140625 10.078125 -0.640625 C 9.179688 -0.140625 8.179688 0.109375 7.078125 0.109375 C 5.910156 0.109375 4.847656 -0.160156 3.890625 -0.703125 C 2.929688 -1.253906 2.171875 -2.015625 1.609375 -2.984375 C 1.054688 -3.960938 0.78125 -5.0625 0.78125 -6.28125 C 0.78125 -7.507812 1.054688 -8.609375 1.609375 -9.578125 C 2.171875 -10.554688 2.929688 -11.316406 3.890625 -11.859375 C 4.847656 -12.410156 5.910156 -12.6875 7.078125 -12.6875 C 8.410156 -12.6875 9.585938 -12.351562 10.609375 -11.6875 C 11.640625 -11.03125 12.390625 -10.101562 12.859375 -8.90625 Z M 10.890625 -8.90625 "/></g></g></g><g fill="#ffffff" fill-opacity="1"><g transform="translate(887.717869, 160.974083)"><g/></g></g><g fill="#ffffff" fill-opacity="1"><g transform="translate(906.923845, 160.974083)"><g><path d="M 8.796875 -2.796875 L 3.328125 -2.796875 L 2.328125 0 L 0.59375 0 L 5.125 -12.46875 L 7.015625 -12.46875 L 11.53125 0 L 9.8125 0 Z M 8.328125 -4.125 L 6.0625 -10.453125 L 3.796875 -4.125 Z M 8.328125 -4.125 "/></g></g></g><g fill="#ffffff" fill-opacity="1"><g transform="translate(933.455826, 160.974083)"><g><path d="M 9.109375 -12.546875 L 9.109375 -11.21875 L 5.6875 -11.21875 L 5.6875 0 L 4.046875 0 L 4.046875 -11.21875 L 0.609375 -11.21875 L 0.609375 -12.546875 Z M 9.109375 -12.546875 "/></g></g></g></svg>